<?xml version="1.0" encoding="UTF-8"?>
<svg xmlns="http://www.w3.org/2000/svg" xmlns:xlink="http://www.w3.org/1999/xlink" viewBox="0 0 3000 3273">
<path fill-rule="nonzero" fill="currentColor" fill-opacity="1" d="M 1291.980469 3262.25 C 880.835938 3215.8125 598.355469 3100.925781 320.492188 2867.140625 C 109.675781 2689.765625 0 2535.675781 0 2416.859375 C 0 2362.25 15.546875 2333.628906 80.160156 2269.28125 C 152.5625 2197.191406 194.894531 2177.609375 517.523438 2067.03125 C 989.359375 1905.289062 1056.980469 1854.371094 1085.511719 1639.261719 C 1097.730469 1547.171875 1095.980469 1542.628906 1012.179688 1448.269531 C 943.414062 1370.839844 914.738281 1315.410156 868.050781 1169.679688 C 817.28125 1011.179688 810.140625 963.101562 812.617188 796.589844 C 817.613281 461.179688 858.417969 325.75 993.324219 196.828125 C 1291.050781 -87.679688 1906.660156 -58.449219 2116.53125 250.160156 C 2200.089844 373.03125 2221.71875 471.191406 2222.96875 733.179688 C 2224.589844 1070.980469 2155.140625 1291.359375 1994.691406 1457.570312 C 1920.210938 1534.730469 1918.890625 1538.449219 1931.691406 1634.980469 C 1952.578125 1792.429688 2010.179688 1874.28125 2150.160156 1945.441406 C 2216.75 1979.28125 2631.230469 2123.769531 2661.730469 2123.769531 C 2717.300781 2123.769531 2919.320312 2243.828125 2956.480469 2298.929688 C 3029.410156 2407.089844 3015.308594 2470.863281 2878.851562 2650.0625 C 2562.539062 3065.457031 1880.199219 3328.691406 1291.980469 3262.25 Z M 1291.980469 3262.25 "/>
</svg>
